<?xml version="1.0" encoding="utf-8"?>
<!-- Generator: Adobe Illustrator 16.0.0, SVG Export Plug-In . SVG Version: 6.00 Build 0)  -->
<!DOCTYPE svg PUBLIC "-//W3C//DTD SVG 1.1//EN" "http://www.w3.org/Graphics/SVG/1.1/DTD/svg11.dtd">
<svg version="1.1" id="Layer_1" xmlns="http://www.w3.org/2000/svg" xmlns:xlink="http://www.w3.org/1999/xlink" x="0px" y="0px"
	 width="432px" height="432px" viewBox="0 0 432 432" enable-background="new 0 0 432 432" xml:space="preserve">
<path fill="#818A8F" d="M346.119,238.193v-1.518c-1.06,0.012-1.94,0.266-2.542,0.807c-0.868,0.748-1.242,1.785-1.242,3.387
	c0,1.338-0.265,1.879-0.662,2.217c-0.422,0.35-1.073,0.457-1.639,0.457v1.508c1.096,0.012,1.988-0.229,2.639-0.771
	c1.108-0.916,1.253-2.242,1.253-3.41c0-1.301,0.277-1.855,0.688-2.229C344.914,238.375,345.468,238.193,346.119,238.193
	 M339.145,238.17v-1.482h-6.074v1.482h2.242v6.881h1.59v-6.881H339.145z M326.925,239.314c0-0.771,0.289-1.061,1.048-1.061h2.543
	v-1.566h-2.555c-1.711,0-2.627,1.061-2.627,2.664v5.699h1.591v-3.424h2.964v-1.48h-2.964V239.314z M321.864,236.688h-1.591v8.363
	h1.591V236.688z M316.768,236.688h-1.592v3.35H312.2v-3.35h-1.604v8.363h1.604v-3.531h2.976v3.531h1.592V236.688z M307.814,238.193
	v-1.518c-1.062,0.012-1.94,0.266-2.543,0.807c-0.867,0.748-1.241,1.785-1.241,3.387c0,1.338-0.266,1.879-0.663,2.217
	c-0.421,0.35-1.072,0.457-1.639,0.457v1.508c1.097,0.012,1.988-0.229,2.639-0.771c1.109-0.916,1.254-2.242,1.254-3.41
	c0-1.301,0.277-1.855,0.686-2.229C306.609,238.375,307.163,238.193,307.814,238.193 M289.618,245.195
	c2.386,0,4.133-1.855,4.037-4.797h-3.82v1.482h2.073c-0.229,1.014-1.097,1.867-2.29,1.867c-1.386,0-2.47-1.324-2.47-2.916
	c0-1.578,1.084-2.904,2.47-2.904c0.964,0,1.687,0.543,2.085,1.326h1.711c-0.53-1.723-1.94-2.783-3.796-2.783
	c-2.277,0-4.062,1.916-4.062,4.361C285.557,243.279,287.341,245.195,289.618,245.195 M279.46,236.482
	c-0.854,0-1.627,0.301-2.181,0.855c-0.542,0.543-0.843,1.314-0.843,2.17v5.543h1.59v-5.578c0-0.893,0.542-1.436,1.434-1.436
	c0.904,0,1.446,0.543,1.446,1.436v5.578h1.591v-5.543c0-0.855-0.301-1.627-0.844-2.17
	C281.099,236.783,280.328,236.482,279.46,236.482 M272.965,236.688h-1.591v8.363h1.591V236.688z M265.904,245.051h2.531v-1.566
	h-2.52c-0.759,0-1.048-0.326-1.048-1.098v-5.699h-1.591v5.725C263.277,244.014,264.193,245.051,265.904,245.051 M258.335,241.184
	h-2.88v-1.711c0-0.893,0.543-1.436,1.434-1.436c0.904,0,1.446,0.543,1.446,1.436V241.184z M259.926,239.508
	c0-0.855-0.301-1.627-0.843-2.17c-0.555-0.555-1.326-0.855-2.194-0.855c-0.854,0-1.626,0.301-2.181,0.855
	c-0.542,0.543-0.843,1.314-0.843,2.17v5.543h1.59v-2.338h2.88v2.338h1.591V239.508z M246.719,239.314
	c0-0.771,0.303-1.061,1.062-1.061h2.939v-1.566h-2.951c-1.724,0-2.64,1.061-2.64,2.664v3.035c0,1.604,0.916,2.664,2.64,2.664h2.951
	v-1.566h-2.939c-0.759,0-1.062-0.301-1.062-1.072v-0.809h3.387v-1.482h-3.387V239.314z M241.682,236.688h-1.59v3.35h-2.976v-3.35
	h-1.604v8.363h1.604v-3.531h2.976v3.531h1.59V236.688z M227.946,238.725c-2.062-0.254-3.278,0.975-3.278,2.734v3.592h1.592v-3.592
	c0-0.879,0.674-1.422,1.687-1.24V238.725z M219.535,243.736c-0.844,0-1.531-0.723-1.531-1.771c0-1.072,0.688-1.818,1.531-1.818
	c0.843,0,1.529,0.746,1.529,1.818C221.064,243.014,220.378,243.736,219.535,243.736 M219.535,238.688
	c-1.723,0-3.121,1.41-3.121,3.266c0,1.857,1.398,3.242,3.121,3.242s3.133-1.385,3.133-3.242
	C222.668,240.098,221.258,238.688,219.535,238.688 M213.653,238.869c0.012-0.857,0.422-1.17,1.181-1.109v-1.494
	c-1.783-0.205-2.772,1.023-2.772,2.676v6.121h1.591v-4.783h1.121v-1.41H213.653z"/>
<path fill="#CCDBAE" d="M199.374,245.195c2.386,0,4.133-1.855,4.037-4.797h-3.82v1.482h2.073c-0.229,1.014-1.097,1.867-2.29,1.867
	c-1.386,0-2.47-1.324-2.47-2.916c0-1.578,1.084-2.904,2.47-2.904c0.964,0,1.687,0.543,2.085,1.326h1.711
	c-0.53-1.723-1.94-2.783-3.796-2.783c-2.277,0-4.061,1.916-4.061,4.361C195.313,243.279,197.097,245.195,199.374,245.195
	 M189.216,236.482c-0.856,0-1.627,0.301-2.181,0.855c-0.542,0.543-0.844,1.314-0.844,2.17v5.543h1.591v-5.58
	c0-0.891,0.542-1.434,1.434-1.434c0.904,0,1.446,0.543,1.446,1.434v5.58h1.591v-5.543c0-0.855-0.302-1.627-0.844-2.17
	C190.855,236.783,190.084,236.482,189.216,236.482 M182.721,236.688h-1.591v8.363h1.591V236.688z M177.624,236.688h-1.591v3.35
	h-2.976v-3.35h-1.603v8.363h1.603v-3.531h2.976v3.531h1.591V236.688z M168.466,242.4h-1.711c-0.374,0.758-1.133,1.348-2.085,1.348
	c-1.373,0-2.458-1.324-2.458-2.916c0-1.578,1.085-2.904,2.458-2.904c0.964,0,1.711,0.568,2.085,1.326h1.723
	c-0.518-1.711-1.916-2.783-3.808-2.783c-2.277,0-4.049,1.916-4.049,4.361c0,2.447,1.772,4.363,4.049,4.363
	C166.526,245.195,167.936,244.098,168.466,242.4 M155.97,241.182h-2.88v-1.711c0-0.891,0.543-1.434,1.434-1.434
	c0.904,0,1.446,0.543,1.446,1.434V241.182z M157.561,239.508c0-0.855-0.301-1.627-0.844-2.17c-0.554-0.555-1.325-0.855-2.193-0.855
	c-0.855,0-1.627,0.301-2.181,0.855c-0.542,0.543-0.843,1.314-0.843,2.17v5.543h1.59v-2.338h2.88v2.338h1.591V239.508z
	 M144.342,243.689c-1.386,0-2.494-1.289-2.494-2.857c0-1.553,1.108-2.844,2.494-2.844c1.374,0,2.482,1.291,2.482,2.844
	C146.824,242.4,145.716,243.689,144.342,243.689 M144.342,236.482c-2.374,0-4.097,1.928-4.097,4.35c0,2.434,1.723,4.363,4.097,4.363
	c2.362,0,4.085-1.93,4.085-4.363C148.427,238.41,146.704,236.482,144.342,236.482 M137.63,242.4h-1.711
	c-0.373,0.758-1.133,1.348-2.084,1.348c-1.374,0-2.459-1.324-2.459-2.916c0-1.578,1.085-2.904,2.459-2.904
	c0.964,0,1.711,0.568,2.084,1.326h1.723c-0.518-1.711-1.916-2.783-3.807-2.783c-2.278,0-4.049,1.916-4.049,4.361
	c0,2.447,1.771,4.363,4.049,4.363C135.69,245.195,137.1,244.098,137.63,242.4 M119.833,240.857c0,1.012-0.29,2.711-2.182,2.711
	h-1.506v-5.398h1.506C119.447,238.17,119.833,239.627,119.833,240.857 M121.423,240.869c0-2.578-1.446-4.182-3.772-4.182h-3.096
	v8.363h3.096C119.941,245.051,121.423,243.424,121.423,240.869 M107.373,243.689c-1.386,0-2.494-1.289-2.494-2.857
	c0-1.553,1.108-2.844,2.494-2.844c1.374,0,2.482,1.291,2.482,2.844C109.855,242.4,108.747,243.689,107.373,243.689 M107.373,236.482
	c-2.374,0-4.097,1.928-4.097,4.35c0,2.434,1.723,4.363,4.097,4.363c2.362,0,4.085-1.93,4.085-4.363
	C111.458,238.41,109.735,236.482,107.373,236.482 M96.468,243.689c-1.386,0-2.495-1.289-2.495-2.857
	c0-1.553,1.109-2.844,2.495-2.844c1.373,0,2.482,1.291,2.482,2.844C98.95,242.4,97.841,243.689,96.468,243.689 M96.468,236.482
	c-2.374,0-4.097,1.928-4.097,4.35c0,2.434,1.723,4.363,4.097,4.363c2.362,0,4.085-1.93,4.085-4.363
	C100.553,238.41,98.83,236.482,96.468,236.482 M86.141,239.314c0-0.771,0.289-1.061,1.048-1.061h2.543v-1.566h-2.555
	c-1.711,0-2.627,1.061-2.627,2.664v5.699h1.591v-3.422h2.964v-1.482h-2.964V239.314z"/>
<path fill="#818A8F" d="M306.029,260.887c1.02,0,1.636-0.346,1.999-0.625l0.345-1.998h-2.142l-0.051,0.295h1.813l-0.27,1.543
	c-0.278,0.195-0.76,0.49-1.704,0.49c-1.417,0-2.412-0.996-2.412-2.447c0-1.559,1.172-2.834,2.707-2.834
	c0.818,0,1.35,0.219,1.78,0.76l0.253-0.201c-0.497-0.617-1.206-0.854-2.024-0.854c-1.662,0-3.062,1.324-3.062,3.146
	C303.262,259.799,304.451,260.887,306.029,260.887 M299.476,260.887h0.101l1.021-5.803h-0.321l-0.827,4.672
	c-0.033,0.203-0.05,0.439-0.05,0.439s-0.085-0.236-0.187-0.404l-2.758-4.775h-0.093l-1.021,5.803h0.32l0.818-4.654
	c0.034-0.178,0.042-0.457,0.042-0.457s0.109,0.236,0.203,0.404L299.476,260.887z M291.377,260.818h0.337l1.014-5.734h-0.338
	L291.377,260.818z M285.221,260.818h3.045l0.05-0.303h-2.707l0.961-5.432h-0.337L285.221,260.818z M278.581,260.818h3.4l0.05-0.295
	h-3.062l0.312-1.771h2.64l0.052-0.295h-2.641l0.54-3.078h2.952l0.051-0.295h-3.282L278.581,260.818z M271.943,260.818h3.398
	l0.052-0.295h-3.062l0.312-1.771h2.64l0.051-0.295h-2.64l0.539-3.078h2.953l0.05-0.295h-3.281L271.943,260.818z M265.448,260.818
	h0.337l0.363-2.066h2.666l0.05-0.295h-2.665l0.54-3.078h2.935l0.06-0.295h-3.273L265.448,260.818z M256.634,261.898h0.371
	l3.847-7.17h-0.371L256.634,261.898z M251.817,261.898h0.371l3.847-7.17h-0.371L251.817,261.898z M244.066,260.887
	c1.02,0,1.636-0.346,1.999-0.625l0.346-1.998h-2.143l-0.051,0.295h1.813l-0.271,1.543c-0.277,0.195-0.759,0.49-1.703,0.49
	c-1.417,0-2.412-0.996-2.412-2.447c0-1.559,1.172-2.834,2.707-2.834c0.818,0,1.35,0.219,1.779,0.76l0.253-0.201
	c-0.496-0.617-1.205-0.854-2.023-0.854c-1.662,0-3.062,1.324-3.062,3.146C241.299,259.799,242.488,260.887,244.066,260.887
	 M237.512,260.887h0.102l1.021-5.803h-0.32l-0.826,4.672c-0.034,0.203-0.051,0.439-0.051,0.439s-0.084-0.236-0.187-0.404
	l-2.758-4.775h-0.093l-1.021,5.803h0.32l0.818-4.654c0.033-0.178,0.043-0.457,0.043-0.457s0.109,0.236,0.201,0.404L237.512,260.887z
	 M229.414,260.818h0.338l1.012-5.734h-0.338L229.414,260.818z M223.366,258.533c0.034-0.152,0.093-0.354,0.127-0.549l0.515-2.9
	h-0.338l-1.012,5.734h0.337l0.338-1.957l0.81-0.793l1.797,2.75h0.388l-1.94-2.961l2.75-2.773h-0.422l-2.969,3.002
	C223.611,258.221,223.477,258.391,223.366,258.533 M218.963,260.887h0.103l1.02-5.803h-0.319l-0.828,4.672
	c-0.033,0.203-0.051,0.439-0.051,0.439s-0.084-0.236-0.185-0.404l-2.758-4.775h-0.093l-1.021,5.803h0.321l0.818-4.654
	c0.034-0.178,0.042-0.457,0.042-0.457s0.11,0.236,0.203,0.404L218.963,260.887z M210.866,260.818h0.337l1.012-5.734h-0.337
	L210.866,260.818z M207.315,258.457h-3.273l0.599-3.373h-0.338l-1.012,5.734h0.338l0.362-2.066h3.273l-0.363,2.066h0.338
	l1.012-5.734h-0.337L207.315,258.457z M198.163,260.818h0.337l0.962-5.447h1.78l0.05-0.287h-3.905l-0.051,0.287h1.788
	L198.163,260.818z M188.134,261.898h0.371l3.846-7.17h-0.371L188.134,261.898z M183.317,261.898h0.371l3.847-7.17h-0.371
	L183.317,261.898z M175.566,260.887c1.02,0,1.636-0.346,1.999-0.625l0.346-1.998h-2.143l-0.05,0.295h1.813l-0.27,1.543
	c-0.278,0.195-0.759,0.49-1.704,0.49c-1.417,0-2.412-0.996-2.412-2.447c0-1.559,1.172-2.834,2.708-2.834
	c0.818,0,1.349,0.219,1.779,0.76l0.253-0.201c-0.497-0.617-1.206-0.854-2.024-0.854c-1.662,0-3.062,1.324-3.062,3.146
	C172.799,259.799,173.988,260.887,175.566,260.887 M169.012,260.887h0.101l1.021-5.803h-0.321l-0.826,4.672
	c-0.034,0.203-0.051,0.439-0.051,0.439s-0.084-0.236-0.186-0.404l-2.758-4.775h-0.093l-1.02,5.803h0.32l0.818-4.654
	c0.034-0.178,0.043-0.457,0.043-0.457s0.109,0.236,0.202,0.404L169.012,260.887z M160.914,260.818h0.338l1.012-5.734h-0.337
	L160.914,260.818z M155.744,260.818h0.337l0.962-5.447h1.78l0.05-0.287h-3.905l-0.051,0.287h1.788L155.744,260.818z M151.383,259.41
	h-2.885l1.856-3.281c0.118-0.201,0.253-0.523,0.253-0.523s0.034,0.322,0.076,0.523L151.383,259.41z M148.329,259.707h3.113
	l0.236,1.111h0.338l-1.266-5.803h-0.101l-3.29,5.803h0.346L148.329,259.707z M141.202,260.818h3.399l0.051-0.295h-3.062l0.312-1.771
	h2.64l0.051-0.295h-2.64l0.539-3.078h2.953l0.05-0.295h-3.281L141.202,260.818z M133.552,260.887h0.101l1.02-5.803h-0.32
	l-0.827,4.672c-0.033,0.203-0.05,0.439-0.05,0.439s-0.085-0.236-0.186-0.404l-2.758-4.775h-0.093l-1.021,5.803h0.321l0.818-4.654
	c0.034-0.178,0.042-0.457,0.042-0.457s0.11,0.236,0.203,0.404L133.552,260.887z M125.454,260.818h0.337l1.013-5.734h-0.338
	L125.454,260.818z"/>
<path fill="#007B69" d="M107.12,197.739h10.18c0-0.003,0-0.005,0-0.008c0-15.384-10.945-27.63-25.946-27.63
	c-15.078,0-26.023,12.246-26.023,27.63c0,0.003,0,0.005,0,0.008h10.18c0-0.003-0.001-0.005-0.001-0.008
	c0-9.873,7.042-18.062,15.844-18.062c8.725,0,15.766,8.188,15.766,18.062C107.12,197.734,107.12,197.736,107.12,197.739"/>
<path fill="#CCDBAE" d="M117.298,197.77h-10.18c-0.018,9.932-7.051,18.101-15.765,18.101c-8.79,0-15.823-8.169-15.841-18.101h-10.18
	c0.019,15.442,10.956,27.667,26.021,27.667C106.342,225.438,117.28,213.212,117.298,197.77"/>
<path fill="#CCDBAE" d="M384.228,215.388v9.415h4.745c14.542,0,23.957-10.333,23.957-26.558c0-16.379-9.186-26.559-23.957-26.559
	h-18.904v53.117h10.103v-43.704h8.802c11.403,0,13.854,9.262,13.854,17.068c0,6.429-1.837,17.221-13.854,17.221H384.228z"/>
<path fill="#024E43" d="M38.281,170.538c-5.434,0-10.333,1.913-13.853,5.434c-3.444,3.444-5.358,8.344-5.358,13.777v35.207h10.103
	v-35.436c0-5.663,3.444-9.108,9.108-9.108c5.74,0,9.184,3.445,9.184,9.108v35.436h10.103v-35.207c0-5.434-1.913-10.333-5.357-13.777
	C48.69,172.451,43.792,170.538,38.281,170.538"/>
<path fill="#007B69" d="M143.213,225.875c5.511,0,10.409-1.914,13.93-5.359c3.444-3.519,5.357-8.418,5.357-13.852v-34.824h-10.103
	v34.977c0,5.74-3.444,9.186-9.184,9.186c-5.664,0-9.108-3.445-9.108-9.186v-34.977h-10.103v34.824
	c0,5.434,1.914,10.333,5.358,13.852C132.88,223.961,137.779,225.875,143.213,225.875"/>
<path fill="#CCDBAE" d="M209.035,211.179c0-5.664-2.067-9.261-5.817-11.404c4.592-2.143,7.424-6.047,7.424-12.093
	c0-9.95-7.118-15.843-18.216-15.843h-20.359v53.116h10.18v-43.702h10.179c8.113,0,8.113,5.203,8.113,6.965
	c0,6.582-6.582,6.965-7.883,6.965h-6.429v9.414h5.817c4.745,0,6.888,2.143,6.888,6.812v13.546h10.103V211.179z"/>
<rect x="219.061" y="171.839" fill="#007B69" width="10.103" height="53.116"/>
<g>
	<path fill="#024E43" d="M273.479,181.406v-9.644c-6.734,0.077-12.323,1.684-16.148,5.128c-5.512,4.746-7.885,11.328-7.885,21.507
		c0,8.496-1.684,11.939-4.209,14.083c-2.679,2.22-6.812,2.909-10.408,2.909v9.566c6.965,0.076,12.628-1.453,16.761-4.898
		c7.042-5.816,7.96-14.236,7.96-21.66c0-8.266,1.761-11.786,4.363-14.159C265.824,182.554,269.346,181.406,273.479,181.406"/>
</g>
<path fill="#69923A" d="M278.912,224.955h10.18v-53.117h-10.18V224.955z M318.1,171.838h-10.104v21.277h-14.925v9.415h14.925v22.424
	H318.1V171.838z"/>
<path fill="#007B69" d="M337.539,188.218c0-4.899,1.914-6.735,6.736-6.735h18.675v-9.95h-18.752
	c-10.945,0-16.762,6.735-16.762,16.915v19.287c0,10.179,5.816,16.916,16.762,16.916h18.752V214.7h-18.675
	c-4.822,0-6.736-1.914-6.736-6.812V188.218z M359.046,193.346h-17.45v9.414h17.45V193.346z"/>
<path fill="#69923A" d="M249.472,197.555h10.101c0.123-7.635,1.832-11.032,4.34-13.317c1.913-1.684,5.434-2.831,9.566-2.831v-9.645
	c-6.735,0.076-12.322,1.685-16.149,5.128C251.977,181.499,249.605,187.87,249.472,197.555"/>
<path fill="#024E43" d="M210.642,187.682c0-9.95-7.118-15.843-18.216-15.843h-10v9.414h10c8.113,0,8.113,5.204,8.113,6.965
	c0,6.582-6.582,6.965-7.883,6.965h-6.429v9.414h5.816c4.746,0,6.889,2.143,6.889,6.812v13.546h10.103v-13.776
	c0-5.664-2.067-9.261-5.817-11.404C207.81,197.632,210.642,193.729,210.642,187.682"/>
<path fill="#68944F" d="M412.929,198.245c0-16.379-9.186-26.56-23.956-26.56h-8.682v9.414h8.682
	c11.404,0,13.853,9.263,13.853,17.068c0,6.43-1.837,17.221-13.853,17.221h-4.746v9.415h4.746
	C403.515,224.803,412.929,214.47,412.929,198.245"/>
<path fill="#69923A" d="M134.105,171.839h-10.103v24.981h10.103V171.839z M162.5,171.839h-10.103v24.981H162.5V171.839z"/>
<path fill="#007B69" d="M19.07,224.955h10.103v-26.788H19.07V224.955z M47.465,224.955h10.103v-26.788H47.465V224.955z"/>
<path fill="#007B69" d="M307.996,224.955H318.1v-31.777h-25.028v9.352h14.925V224.955z M278.912,224.955h10.181v-31.777h-10.181
	V224.955z"/>
<path fill="#024E43" d="M344.198,224.65h18.752V214.7h-18.675c-4.822,0-6.736-1.913-6.736-6.812v-4.791h-10.103v4.638
	C327.437,217.914,333.254,224.65,344.198,224.65"/>
<path fill="#024E43" d="M91.315,225.436v-9.567c-8.784-0.023-15.805-8.202-15.805-18.138c0-9.859,7.021-18.036,15.805-18.06v-9.567
	c-14.203,0.019-24.72,10.909-25.87,25.043v5.181C66.596,214.527,77.112,225.416,91.315,225.436"/>
<path fill="#69923A" d="M91.315,225.436v-9.567c-8.772-0.023-15.785-8.181-15.803-18.099H65.445v2.558
	C66.596,214.527,77.112,225.416,91.315,225.436"/>
<g>
	<path fill="#818A8F" d="M74.101,241.329H24.493c-0.333,0-0.603-0.27-0.603-0.603s0.27-0.603,0.603-0.603h49.608
		c0.333,0,0.603,0.27,0.603,0.603S74.433,241.329,74.101,241.329z"/>
</g>
<g>
	<g>
		<path fill="#818A8F" d="M22.083,243.739c-1.661,0-3.013-1.352-3.013-3.013s1.352-3.013,3.013-3.013s3.012,1.352,3.012,3.013
			S23.744,243.739,22.083,243.739z M22.083,238.919c-0.997,0-1.808,0.811-1.808,1.808s0.811,1.808,1.808,1.808
			s1.807-0.811,1.807-1.808S23.08,238.919,22.083,238.919z"/>
	</g>
</g>
<g>
	<path fill="#818A8F" d="M406.506,241.329h-49.607c-0.333,0-0.603-0.27-0.603-0.603s0.27-0.603,0.603-0.603h49.607
		c0.333,0,0.603,0.27,0.603,0.603S406.839,241.329,406.506,241.329z"/>
</g>
<g>
	<g>
		<path fill="#818A8F" d="M408.916,243.739c-1.661,0-3.013-1.352-3.013-3.013s1.352-3.013,3.013-3.013s3.013,1.352,3.013,3.013
			S410.577,243.739,408.916,243.739z M408.916,238.919c-0.997,0-1.808,0.811-1.808,1.808s0.811,1.808,1.808,1.808
			s1.808-0.811,1.808-1.808S409.913,238.919,408.916,238.919z"/>
	</g>
</g>
</svg>
